# xmcd
#
# Track frame offsets:
#	182
#	13612
#	27722
#	39267
#	52767
#	65402
#	78120
#	93912
#	107167
#	120945
#	133592
#	147127
#	160117
#	173007
#	185900
#	199437
#	212610
#	226107
#
# Disc length: 3198 seconds
#
# Revision: 0
# Processed by: cddbd v1.4PL0 Copyright (c) Steve Scherf et al.
# Submitted via: EasyCDDAExtractor 4.6.0.1
#
DISCID=e70c7c12
DTITLE=Sonny Boy Williamson - Early In The Morning
DYEAR=1998
DGENRE=blues
TTITLE0=Good Morning Little Schoolgirl
TTITLE1=Bluebird Blues
TTITLE2=Got The Bottle Up And Gone
TTITLE3=Sugar Mama
TTITLE4=Early In The Morning
TTITLE5=Black Gal Blues
TTITLE6=Decoration Blues
TTITLE7=Whisky Headed Woman
TTITLE8=Lord, Oh Lord Blues
TTITLE9=Good Gravy
TTITLE10=T B Blues
TTITLE11=Tell Me Baby
TTITLE12=I Been Dealing With The Devil
TTITLE13=Welfare Store Blues
TTITLE14=My Little Machine
TTITLE15=Jivin' The Blues
TTITLE16=Shotgun Blues
TTITLE17=Million Years Blues
EXTD=
EXTT0=
EXTT1=
EXTT2=
EXTT3=
EXTT4=
EXTT5=
EXTT6=
EXTT7=
EXTT8=
EXTT9=
EXTT10=
EXTT11=
EXTT12=
EXTT13=
EXTT14=
EXTT15=
EXTT16=
EXTT17=
PLAYORDER=
